# xmcd
#
# Track frame offsets:
#	150
#	11665
#	22301
#	36008
#	44821
#	53264
#	70388
#	83320
#	95086
#	110383
#	117857
#	128423
#
# Disc length: 1835 seconds
#
# Revision: 1
# Processed by: cddbd v1.5PL3 Copyright (c) Steve Scherf et al.
# Submitted via: dBpowerAMP V4.0
#
DISCID=9507290c
DTITLE=Various Artist - CountryClassics;MasterToneCD2;MDT8278-2
DYEAR=1996
DGENRE=Country
TTITLE0=IDon'tClaimToBeAnAngel(KittyWells) - KittyWells
TTITLE1=I'mSoLonesomeICouldCry(BillieJoSpears) - BillieJoSpears
TTITLE2=Ruby,Don'tYouTakeYourLoveToTown(KennyRogers) - KennyRogers
TTITLE3=TakeMeBack(RickySkaggs) - RickySkaggs
TTITLE4=HeyGoodLookin'(BoxCarWillie) - BoxCarWillie
TTITLE5=BlueGrass(WildBillEmerson) - WildBillEmerson
TTITLE6=PoorBoy(WoodyGuthrie) - WoodyGuthrie
TTITLE7=Crying(WaylonJennings) - WaylonJennings
TTITLE8=FaceOfAFighter(WillieNelson) - WillieNelson
TTITLE9=PuppyLove(DollyParton) - DollyParton
TTITLE10=LoveIsAFadedRose(JeanniePruett) - JeanniePruett
TTITLE11=ThisRoadThatIWalk(ConwayTwitty) - ConwayTwitty
EXTD=corrected
EXTT0=
EXTT1=
EXTT2=
EXTT3=
EXTT4=
EXTT5=
EXTT6=
EXTT7=
EXTT8=
EXTT9=
EXTT10=
EXTT11=
PLAYORDER=
